<svg width="48" height="53" viewBox="0 0 48 53" fill="none" xmlns="http://www.w3.org/2000/svg">
<path opacity="0.7" d="M18.7 32.6C14.5 32.6 10.6 31 7.60002 28.1C4.50002 25.1 2.80002 21.1 2.80002 16.9C2.60002 8.10002 9.70002 0.800024 18.5 0.700024L41.3 0.400024C44.6 0.400024 47.3 3.00002 47.3 6.30002C47.3 9.60002 44.7 12.3 41.4 12.4L18.6 12.7C17.5 12.7 16.6 13.1 15.8 13.9C15.1 14.7 14.7 15.6 14.7 16.7C14.7 17.8 15.1 18.7 15.9 19.5C16.7 20.2 17.7 20.6 18.7 20.6H23.3C26.6 20.6 29.3 23.2 29.3 26.5C29.3 29.8 26.7 32.5 23.4 32.6H18.8C18.8 32.6 18.7 32.6 18.6 32.6H18.7Z" fill="#FFAA4C"/>
<path opacity="0.7" d="M39.4 52.7001H16.6C7.79995 52.7001 0.699951 45.4001 0.699951 36.7001C0.699951 27.9001 7.89995 20.8 16.6 20.8H23.7C27 20.8 29.7 23.5 29.7 26.8C29.7 30.1 27 32.8 23.7 32.8H16.6C14.4 32.8 12.7 34.6001 12.7 36.7001C12.7 38.9001 14.5 40.6 16.6 40.6H39.4C42.7 40.6 45.4 43.4001 45.4 46.7001C45.4 50.0001 42.7 52.7001 39.4 52.7001Z" fill="#2FDBBC"/>
<path opacity="0.7" d="M39.4999 52.5C37.7999 52.5 35.9999 51.8 34.8999 50.3L20.2999 32.6C17.0999 28.7 17.2999 22.9 20.7999 19.2L36.8999 2.19999C39.1999 -0.200012 42.9999 -0.300012 45.3999 1.99999C47.7999 4.29999 47.8999 8.09999 45.5999 10.5L30.5999 26.2L44.0999 42.6C46.1999 45.2 45.7999 48.9 43.2999 51.1C42.1999 52 40.7999 52.5 39.4999 52.5Z" fill="#A64CED"/>
</svg>
