<svg width="475" height="282" viewBox="0 0 475 282" fill="none" xmlns="http://www.w3.org/2000/svg">
<g opacity="0.7">
<path fill-rule="evenodd" clip-rule="evenodd" d="M463.688 32.6199C469.108 31.2443 474.603 34.5806 475.883 40.024L496.549 127.931C497.63 132.527 495.348 137.253 491.077 139.265L446.293 160.366C444.587 161.169 442.688 161.474 440.816 161.245L419.055 158.581C414.864 158.068 411.446 154.977 410.516 150.858L390.291 61.2918C389.097 56.0052 392.332 50.7297 397.585 49.3965L404.856 47.5512L421.566 43.3103L435.955 39.6583L450.345 36.0064L463.688 32.6199Z" fill="#A64CED"/>
<path d="M421.566 43.3103C419.439 34.9294 417.97 17.4608 429.11 14.6335C440.25 11.8062 447.908 27.704 450.345 36.0064M421.566 43.3103L435.955 39.6583M421.566 43.3103L404.856 47.5512M450.345 36.0064L463.688 32.6199C469.108 31.2443 474.603 34.5806 475.883 40.024L496.549 127.931C497.63 132.527 495.348 137.253 491.077 139.265L446.293 160.366C444.587 161.169 442.688 161.474 440.816 161.245L419.055 158.581C414.864 158.068 411.446 154.977 410.516 150.858L390.291 61.2918C389.097 56.0052 392.332 50.7297 397.585 49.3965L404.856 47.5512M450.345 36.0064L435.955 39.6583M435.955 39.6583C431.986 26.6832 420.922 1.49816 408.422 4.55909C395.923 7.62003 400.837 34.4959 404.856 47.5512" stroke="#A64CED" stroke-width="2" stroke-linecap="round" stroke-linejoin="round"/>
<path d="M442.029 150.066L436.482 130.134M419.841 70.3399L430.935 110.203" stroke="white" stroke-width="2" stroke-linecap="round" stroke-linejoin="round"/>
</g>
<g opacity="0.7">
<path fill-rule="evenodd" clip-rule="evenodd" d="M374.764 316.321C379.921 318.298 385.704 315.72 387.681 310.563L409.678 253.181C411.655 248.024 409.077 242.241 403.92 240.264L393.72 236.354L382.555 232.074L371.391 227.795L361.273 223.916L360.493 223.617C355.336 221.64 349.553 224.218 347.576 229.375L325.579 286.757C323.603 291.914 326.181 297.697 331.337 299.674L374.764 316.321Z" fill="#FFAA4C"/>
<path d="M393.72 236.354L403.92 240.264C409.077 242.241 411.655 248.024 409.678 253.181L387.681 310.563C385.704 315.72 379.921 318.298 374.764 316.321L331.337 299.674C326.18 297.697 323.603 291.914 325.579 286.757L347.576 229.375C349.553 224.218 355.336 221.64 360.493 223.617L361.273 223.916M393.72 236.354C395.697 229.109 397.085 213.795 386.823 210.501C376.561 207.208 372.259 220.658 371.391 227.795M393.72 236.354L382.555 232.074M371.391 227.795L382.555 232.074M371.391 227.795L361.273 223.916M382.555 232.074C386.455 222.161 391.954 201.641 382.753 198.864C373.552 196.087 364.599 214.408 361.273 223.916" stroke="#FFAA4C" stroke-width="2" stroke-linecap="round" stroke-linejoin="round"/>
</g>
<g opacity="0.7">
<path fill-rule="evenodd" clip-rule="evenodd" d="M39.9909 301.52C35.2943 304.425 29.1313 302.974 26.2256 298.277L6.00026 265.585C3.09457 260.888 4.54648 254.725 9.24316 251.82L13.5061 249.182L20.8015 244.669L28.0969 240.155L34.7084 236.065C38.3598 233.806 43.1512 234.935 45.4102 238.586L66.8065 273.171C69.7122 277.868 68.2603 284.031 63.5636 286.936L39.9909 301.52Z" fill="#2FDBBC"/>
<path d="M13.5061 249.182L9.24316 251.82C4.54648 254.725 3.09458 260.888 6.00026 265.585L26.2256 298.277C29.1313 302.974 35.2943 304.425 39.9909 301.52L63.5636 286.936C68.2603 284.031 69.7122 277.868 66.8065 273.171L45.4102 238.586C43.1512 234.935 38.3598 233.806 34.7084 236.065V236.065M13.5061 249.182C11.1411 244.341 8.10916 233.733 14.9007 230.035C21.6923 226.338 26.528 235.242 28.0969 240.155M13.5061 249.182L20.8015 244.669M28.0969 240.155L20.8015 244.669M28.0969 240.155L34.7084 236.065M20.8015 244.669C16.7236 238.204 10.0961 224.478 16.2092 221.287C22.3224 218.096 31.0892 229.809 34.7084 236.065" stroke="#2FDBBC" stroke-width="2" stroke-linecap="round" stroke-linejoin="round"/>
</g>
</svg>
